<?xml version="1.0" encoding="UTF-8" standalone="no"?>
<svg
   height="512pt"
   viewBox="0 -31 512.00026 512"
   width="512pt"
   version="1.1"
   id="svg8"
   sodipodi:docname="shopping-cart.svg"
   inkscape:version="1.1 (c68e22c387, 2021-05-23)"
   xmlns:inkscape="http://www.inkscape.org/namespaces/inkscape"
   xmlns:sodipodi="http://sodipodi.sourceforge.net/DTD/sodipodi-0.dtd"
   xmlns="http://www.w3.org/2000/svg"
   xmlns:svg="http://www.w3.org/2000/svg">
  <defs
     id="defs12" />
  <sodipodi:namedview
     id="namedview10"
     pagecolor="#505050"
     bordercolor="#eeeeee"
     borderopacity="1"
     inkscape:pageshadow="0"
     inkscape:pageopacity="0"
     inkscape:pagecheckerboard="0"
     inkscape:document-units="pt"
     showgrid="false"
     inkscape:zoom="1.28"
     inkscape:cx="486.71875"
     inkscape:cy="381.25"
     inkscape:window-width="2560"
     inkscape:window-height="1346"
     inkscape:window-x="2549"
     inkscape:window-y="-11"
     inkscape:window-maximized="1"
     inkscape:current-layer="svg8" />
  <path
     d="m164.960938 300.003906h.023437c.019531 0 .039063-.003906.058594-.003906h271.957031c6.695312 0 12.582031-4.441406 14.421875-10.878906l60-210c1.292969-4.527344.386719-9.394532-2.445313-13.152344-2.835937-3.757812-7.269531-5.96875-11.976562-5.96875h-366.632812l-10.722657-48.253906c-1.527343-6.863282-7.613281-11.746094-14.644531-11.746094h-90c-8.285156 0-15 6.714844-15 15s6.714844 15 15 15h77.96875c1.898438 8.550781 51.3125 230.917969 54.15625 243.710938-15.941406 6.929687-27.125 22.824218-27.125 41.289062 0 24.8125 20.1875 45 45 45h272c8.285156 0 15-6.714844 15-15s-6.714844-15-15-15h-272c-8.269531 0-15-6.730469-15-15 0-8.257812 6.707031-14.976562 14.960938-14.996094zm312.152343-210.003906-51.429687 180h-248.652344l-40-180zm0 0"
     id="path2"
     style="fill:#888888;fill-opacity:1" />
  <path
     d="m150 405c0 24.8125 20.1875 45 45 45s45-20.1875 45-45-20.1875-45-45-45-45 20.1875-45 45zm45-15c8.269531 0 15 6.730469 15 15s-6.730469 15-15 15-15-6.730469-15-15 6.730469-15 15-15zm0 0"
     id="path4"
     style="fill:#888888;fill-opacity:1" />
  <path
     d="m362 405c0 24.8125 20.1875 45 45 45s45-20.1875 45-45-20.1875-45-45-45-45 20.1875-45 45zm45-15c8.269531 0 15 6.730469 15 15s-6.730469 15-15 15-15-6.730469-15-15 6.730469-15 15-15zm0 0"
     id="path6"
     style="fill:#888888;fill-opacity:1" />
</svg>
